<?xml version="1.0" encoding="UTF-8" standalone="no"?>
<!-- Created with Inkscape (http://www.inkscape.org/) -->
<svg xmlns:dc="http://purl.org/dc/elements/1.1/" xmlns:cc="http://creativecommons.org/ns#" xmlns:rdf="http://www.w3.org/1999/02/22-rdf-syntax-ns#" xmlns:svg="http://www.w3.org/2000/svg" xmlns="http://www.w3.org/2000/svg" xmlns:sodipodi="http://sodipodi.sourceforge.net/DTD/sodipodi-0.dtd" xmlns:inkscape="http://www.inkscape.org/namespaces/inkscape" width="246.94733" height="332.10358" id="svg2" version="1.1" inkscape:version="0.47 r22583" sodipodi:docname="New document 1">
  <defs id="defs4">
    <inkscape:perspective sodipodi:type="inkscape:persp3d" inkscape:vp_x="0 : 526.18109 : 1" inkscape:vp_y="0 : 1000 : 0" inkscape:vp_z="744.09448 : 526.18109 : 1" inkscape:persp3d-origin="372.04724 : 350.78739 : 1" id="perspective10"/>
    <inkscape:perspective id="perspective2824" inkscape:persp3d-origin="0.5 : 0.33333333 : 1" inkscape:vp_z="1 : 0.5 : 1" inkscape:vp_y="0 : 1000 : 0" inkscape:vp_x="0 : 0.5 : 1" sodipodi:type="inkscape:persp3d"/>
  </defs>
  <sodipodi:namedview id="base" pagecolor="#ffffff" bordercolor="#666666" borderopacity="1.0" inkscape:pageopacity="0.0" inkscape:pageshadow="2" inkscape:zoom="0.98994949" inkscape:cx="235.29332" inkscape:cy="128.41288" inkscape:document-units="px" inkscape:current-layer="layer1" showgrid="false" inkscape:window-width="1280" inkscape:window-height="725" inkscape:window-x="0" inkscape:window-y="24" inkscape:window-maximized="1"/>
  <metadata id="metadata7">
    <rdf:RDF>
      <cc:Work rdf:about="">
        <dc:format>image/svg+xml</dc:format>
        <dc:type rdf:resource="http://purl.org/dc/dcmitype/StillImage"/>
        <dc:title/>
      </cc:Work>
    </rdf:RDF>
  </metadata>
  <g inkscape:label="Layer 1" inkscape:groupmode="layer" id="layer1" transform="translate(-248.57357,-360.12931)">
    <path style="fill:#000000;fill-opacity:1" d="m 385.12615,666.32365 c -3.21926,-0.31502 -6.96866,-0.0934 -15.07537,-0.0934 -17.91567,0.63262 -33.45841,-2.64914 -56.29563,-10.971 -22.83722,-8.32185 -50.1659,-38.10755 -57.74467,-57.11773 -7.57877,-19.01018 -6.31873,-25.45966 -7.32091,-39.49757 -1.00217,-14.03791 4.49584,-40.88034 16.24856,-60.29491 11.81992,-19.52556 33.10862,-41.93414 50.85455,-50.73977 17.74594,-8.80564 38.90906,-18.97289 64.81382,-21.23616 2.28583,-20.41679 -2.45275,-62.45727 10.54406,-64.52351 12.99681,-2.06624 20.87198,-5.09089 21.35127,10.07087 -0.12746,18.72724 -1.20042,37.08133 0.76371,55.78097 7.77639,1.39503 16.23,3.09656 28.69539,6.4797 12.46538,3.38314 35.90274,15.5207 46.53682,23.97383 10.63407,8.45313 9.98711,44.87991 -7.44485,30.13144 -13.17047,-17.42854 -35.40191,-23.2228 -47.64597,-27.81482 -5.89598,-2.21124 -18.22409,-3.79185 -24.479,-4.8842 0.68184,9.31555 -0.39426,17.58002 0.0312,26.90986 0.42712,9.45757 0.61642,19.00869 1.1362,21.29622 23.79081,2.90136 44.23435,11.65339 62.8867,32.07116 18.53704,20.29155 17.65702,49.01416 11.48787,71.86562 -6.16915,22.85146 -18.37957,37.36341 -38.76486,46.55339 -9.86303,5.52341 -20.89915,8.77586 -32.09959,9.94661 1.54942,23.40784 0.65747,27.9479 -3.20168,27.98513 -3.85914,0.0372 -15.12391,0.0288 -20.55492,-0.16333 -5.43102,-0.19214 -5.15369,-8.76261 -4.7227,-25.7284 z m -0.91281,-23.31692 c 0.19216,-37.59029 -1.79248,-73.95092 -1.1855,-110.06515 -5.42682,1.00496 -6.45321,1.2958 -12.10637,3.97244 -5.61851,2.66024 -8.02103,2.55103 -9.04387,-0.41112 -3.04333,-6.42395 -5.19149,-12.98968 -6.89258,-19.88292 -1.35229,-5.15204 17.62481,-9.10502 28.34965,-11.34142 -0.54113,-12.71711 -0.25055,-28.44425 -0.55889,-35.79881 -0.30834,-7.35456 -0.84543,-11.26362 -0.78681,-14.54686 -4.30229,-0.0874 -14.65495,3.33977 -21.64691,5.22862 -22.34958,5.72717 -42.82061,16.15575 -61.25967,29.89143 -11.03686,8.76479 -23.15834,23.56741 -29.83921,40.48622 -6.74191,17.07341 -7.61882,66.6055 21.05732,88.69341 15.51857,11.79786 34.24723,16.67304 52.96802,20.43622 10.88184,2.20957 40.94484,3.33794 40.94484,3.33794 l 10e-6,0 -3e-5,0 z m -93.59882,-47.97581 c -0.3925,-11.08057 0.89115,-11.64444 19.82895,-14.23386 18.9378,-2.58942 29.44983,-2.21458 41.96749,-3.33668 12.51766,-1.12211 14.46553,-0.93193 17.8147,12.6272 3.34917,13.55913 8.61748,17.40463 -20.05673,17.6482 -28.67421,0.24357 -33.75755,1.22125 -40.15443,1.04142 -19.61404,-0.5514 -19.00748,-2.6657 -19.39998,-13.74628 z m 30.92055,-27.96044 c -4.33779,-0.23669 -14.13491,-0.68092 -15.73353,-6.54889 -1.59862,-5.86796 -1.15265,-21.66603 -3.72067,-29.43925 -2.56802,-7.77322 3.84588,-7.94797 16.19364,-7.00814 12.34775,0.93984 15.77945,-1.94122 17.92187,15.62368 2.14242,17.5649 3.23456,19.87459 2.89631,24.62557 -0.33825,4.75098 -13.21983,2.98372 -17.55762,2.74703 z m 137.14509,-19.93154 c -13.85214,-10.37224 -30.16286,-15.48637 -47.21884,-15.69045 -0.13438,35.69543 0.3824,72.42993 0.4663,108.26142 38.22098,-9.44994 87.12975,-57.64574 46.75254,-92.57097 z" id="path2832" sodipodi:nodetypes="cczzzzzczcczzcsccczzcczzcccscczcsccscccccczzzszcczzzzzccccc"/>
  </g>
</svg>