<?xml version="1.0" encoding="UTF-8" standalone="no"?>
<!-- Created with Inkscape (http://www.inkscape.org/) -->
<svg xmlns:dc="http://purl.org/dc/elements/1.1/" xmlns:cc="http://creativecommons.org/ns#" xmlns:rdf="http://www.w3.org/1999/02/22-rdf-syntax-ns#" xmlns:svg="http://www.w3.org/2000/svg" xmlns="http://www.w3.org/2000/svg" version="1.1" width="36.844501" height="19.27721" id="svg2">
  <defs id="defs4"/>
  <metadata id="metadata7">
    <rdf:RDF>
      <cc:Work rdf:about="">
        <dc:format>image/svg+xml</dc:format>
        <dc:type rdf:resource="http://purl.org/dc/dcmitype/StillImage"/>
        <dc:title/>
      </cc:Work>
    </rdf:RDF>
  </metadata>
  <g transform="translate(-166.84562,-528.87199)" id="layer1"/>
  <path d="m 32.207423,1.6345816 c -0.3418,-0.488287 -1.0498,-1.26953699 -1.318363,-1.26953699 -0.146487,0 -0.561525,0.292975 -0.732425,1.66016199 -0.292962,2.148438 -0.415037,-0.366212 -1.464837,0.927738 0.146487,0.122 0.43945,0.43945 0.292962,0.561525 -0.02437,0.02437 -3.979487,2.075187 -4.150387,1.9287 -0.292963,-0.317375 0.78125,-1.025388 0.78125,-1.123038 -0.02437,-0.3418 -0.390625,-0.219725 -0.903313,0.219725 -1.000987,0.8789 -0.317387,1.074213 -0.585937,1.318363 -0.09763,0.122 -0.195313,-0.610363 -0.41505,-0.610363 -0.219725,0 -0.219725,0.07325 -0.146475,0.41505 0.1709,0.927725 -0.634775,-0.463875 -1.7334,0.292963 -0.195313,0.122125 -0.244138,0.78125 0.219725,0.366212 0.244137,-0.219725 1.342775,0.195313 0.708012,0.463863 -0.04888,0 -3.955087,2.197275 -3.9795,2.2461 -0.04887,0 0.3418,-1.953125 -0.512687,-0.805663 -0.292975,0.43945 -1.513675,1.66015 -1.513675,1.684563 l -2.00195,-0.903313 0,-1.5625 c 0.390625,-0.07325 0.659175,-0.463875 0.634762,-0.708012 -0.07325,-0.43945 -1.074225,-0.805663 -1.489262,-0.146488 -0.146488,0.219725 0.04887,0.756838 0.195312,0.756838 0.195313,-0.122 0.292975,-0.04887 0.09763,0.805662 -0.07325,1.318363 -0.1709,0.1709 -1.098637,0.1709 -0.244138,0 -0.61035,-0.26855 -0.756838,-1.782225 l -0.3418,0 0.04888,1.440425 c -0.04888,0 -1.831062,-0.756825 -1.831062,-0.78125 0,-0.26855 1.440437,-1.5625 0.878912,-1.66015 -0.146487,0.07325 -1.977537,1.7334 -2.490237,2.221675 -0.976573,0.903325 -0.805673,1.269538 -1.464848,-0.634762 -0.366212,-1.171875 -1.367187,-1.806638 -1.367187,-1.0498 0,0 1.123037,2.636712 1.293937,2.905275 0.268563,0.708 0.488288,0.07325 0.732425,0.07325 0.09763,0 1.3916,-1.000975 1.66015,-1.269538 0.41505,-0.415037 0.366213,-0.195312 0.708013,-0.02438 0.366212,0.146488 0.122125,0.463875 -1.196288,1.5625 -0.78125,0.659188 -0.732425,0.219725 -1.29395,0.219725 -0.26855,0 -0.634762,0.41505 -0.43945,0.6347754 -0.122125,0 -3.002925,0.04888 -3.979487,0.04888 -0.146488,1.025388 3.6621,0.122125 3.784175,0.5127 0.07325,0.146475 -1.269525,1.611325 -1.611325,0.952138 -0.366213,-0.683588 -1.000975,-0.09763 -1.757813,0.390625 -0.6836,0.488287 -0.219725,0.1709 -0.146487,0.78125 0.219725,0 0.463862,-0.04888 1.12305,0.04887 1.611325,0.292962 2.9541,-0.24415 3.491212,-0.122125 0.903313,0.146487 -0.219725,-1.708988 0.341788,-2.050775 0,0 1.611337,0.04888 1.831062,0.292962 0.292963,0.317388 1.196288,0 1.196288,-0.415037 0,-0.7080134 -0.976563,-0.317388 -2.9541,-0.366213 2.148437,-1.5869124 1.806637,-1.6357374 2.294925,-2.0263624 0.415037,-0.3418 1.123037,0.195312 1.123037,0.195312 0,0.341788 -0.976562,0 -0.927725,0.366213 0.04888,0.317375 -0.439462,0.317375 -0.41505,0.561512 0.02437,0.3418 0.976563,-0.02437 0.976563,-0.170887 0,-0.122125 0.439462,-0.317388 0.463875,-0.317388 0.146487,0 -0.02438,0.805663 0.463862,0.756838 0.02438,-0.976563 0.07325,-0.95215 0.09763,-0.903325 0.07325,0.122125 1.245113,0.268562 1.48925,0.561525 l 0.24415,2.0996124 c -0.292975,0 -1.611337,0.976563 -1.757812,0.78125 -0.04888,-0.02437 -0.04888,-0.463875 -0.07325,-1.147462 -0.488275,-0.09763 -0.390625,0.244137 -0.415038,1.440425 -0.292962,0 -2.124025,1.342775 -2.294925,1.342775 -0.805662,0.488287 0.537113,-1.318363 0.537113,-1.416013 -0.04888,-0.219725 -0.26855,-0.219725 -0.43945,0 -0.561525,0.78125 -0.537113,0.78125 -0.659188,0.78125 -0.170887,0 0.1709,-0.6836 0.122125,-0.854487 0,-0.09762 -0.3418,-0.268563 -0.43945,0.122 -0.390625,1.489262 -0.756837,1.63575 -0.219725,2.0752 -0.95215,1.83105 -1.3916,2.7832 -1.538087,2.7832 -0.07325,0 -0.415038,-0.561525 -0.756838,-0.561525 -0.26855,0 -0.366212,0.244137 -0.366212,0.561525 -0.04888,0.415037 -1.0498,0.02437 -2.758788,0.07325 0.09763,-1.538075 0.463863,-3.247063 -0.537112,-2.636713 0,1.0498 0,1.0498 -0.07325,2.661138 -0.07325,-0.02437 -1.684575,-0.1709 -1.70898804,-0.1709 -0.04887,-1.269538 -0.195312,-1.3916 0.21972504,-1.928713 0.43945,-0.561525 0.04887,-0.8545 0.04887,-1.074225 0,-0.146475 -0.09763,-0.1709 -0.53710004,-0.341787 -1.46485,1.513662 -0.219725,0.317375 -0.219725,2.734375 l 0,0.927725 c 0.58593804,0.24415 0.146475,0.07325 1.63573804,0.195312 0.634762,0.02437 0.927737,0.415038 0.756837,0.463875 -0.122125,0.09762 -0.3418,0.02437 -1.684575,0.09762 l 0,0.366213 c 0.8545,-0.02437 3.857425,-0.146488 4.24805,-0.146488 1.586913,0 1.464838,-0.415037 2.221675,0.366213 0.878913,0.976562 0.903325,-0.02437 0.219725,-0.732425 -0.488275,-0.43945 0,-0.78125 0,-0.976563 0,0 1.147463,-2.563475 1.367188,-2.563475 0.219737,0 0.805675,-0.561525 1.000987,-0.561525 0.3662,0 1.342763,-1.367187 1.782225,-0.561512 0.244138,0.585937 0.122125,1.416012 0.463863,1.000975 0.219725,-0.317388 -0.09762,-1.342775 0.04888,-1.416025 0.195312,-0.122125 0.6836,1.074225 0.927737,0.195312 0.04888,-0.195312 0.195313,-0.683587 -0.09762,-0.683587 -0.268562,0 -0.195312,0.43945 -0.41505,0.122125 -0.07325,-0.09763 -0.07325,-0.09763 0.659188,-0.463875 1.025387,-0.537113 0.78125,-0.317375 0.78125,0.6836 0,0.634762 -0.390625,0.43945 -0.390625,1.074212 0,0.3418 0.1709,0.5127 0.585937,0.5127 0.585938,0 0.463863,-1.025387 0.415038,-1.025387 -0.195313,-0.146488 0.683587,-1.220713 0.683587,-1.440438 0,-0.09763 0.830088,-1.2207 1.611338,-1.586912 0.219725,0.09763 1.074212,0.488287 1.123037,0.561525 0,0 0.366213,2.050775 -0.02438,2.050775 -0.244137,0 -0.659175,0.195312 -0.659175,0.659187 0,0.463863 0.366213,0.659175 0.805663,0.659175 0.561525,0 0.805662,-0.537112 0.537112,-1.025387 -0.219725,-0.3418 -0.07325,-0.26855 -0.07325,-2.124025 0.927738,0.1709 3.955088,1.782225 4.174813,1.782225 0,0.268562 -1.46485,2.392575 -1.342775,2.612312 0.195312,0.244138 1.953125,-0.292975 1.5625,-0.95215 -0.26855,-0.488287 -0.61035,-0.317387 0.195312,-1.46485 0.07325,-0.07325 1.074213,0.390625 1.2207,0.390625 0.463875,0.195313 0.219725,0.317388 -0.122125,1.171875 -0.24415,0.6836 -0.537112,-0.512687 -0.756837,-0.512687 -0.07325,1.464837 0.292962,0.78125 0.292962,1.293937 0,0.07325 -0.43945,0.292975 -0.634762,0.292975 -0.3418,0 -0.585938,0.244138 -0.561525,0.5371 0.07325,0.463875 0.756837,-0.43945 0.878912,-0.09763 0.04887,0.122125 -0.659187,0.95215 -0.1709,0.95215 0.195313,0 0.219725,-0.146487 0.488275,-0.5127 0,0.415038 -0.04887,0.415038 0.122125,0.415038 0.292963,0.04887 0.3418,-0.292963 0.3418,-1.464838 0,-0.04887 1.14745,-0.43945 0.341788,-0.561525 0.390625,-0.927737 0.415037,-1.196287 0.537112,-1.196287 l 2.758788,0.903312 -0.854488,1.928713 c -0.195312,0.04887 -0.09763,1.3916 0.3418,1.3916 0.02437,0 1.074213,-3.076163 1.074213,-3.076163 l 1.0498,0.43945 c -0.5371,1.000975 -1.782225,2.246088 -0.8789,2.734375 0.390625,0.04887 0.5127,-0.927737 1.245112,-2.00195 0.463875,-0.708012 0,-0.537112 1.440438,0.02437 0.146475,0.04888 -0.903325,1.586913 -0.878913,2.026363 0,0.292975 0.268563,0.366212 0.3418,-0.04887 0.07325,-0.219725 0.830075,-1.489263 0.830075,-1.83105 l 1.513675,0.683587 c 0.3418,-0.02438 0.219725,-0.683587 -0.122125,-0.683587 l -2.734375,-1.12305 1.684575,-3.02735 c 0.292963,-0.366213 0.927738,0.02437 0.927738,0.1709 0,0.1709 -1.12305,1.855475 -0.6836,1.855475 0.146487,0 0.146487,-0.463875 0.292975,-0.415038 0.292962,0.122 0.341787,-0.09762 1.0498,-1.29395 0.708012,0.3418 -0.09763,0.830075 -0.07325,1.147463 0,0.219725 0.219725,0.244137 0.415037,0.04887 0.244138,-0.366213 0.634763,-0.78125 0.634763,-0.830075 0.366212,0 -0.634763,1.000975 0.292975,1.416012 0.390625,0.146488 1.098625,-0.07325 0.415037,-0.317387 -0.415037,-0.122125 -0.415037,-0.8789 -0.09763,-0.8789 0.244138,0 0.903325,0.43945 1.000975,0.244137 0.07325,-0.244137 -0.415037,-0.585937 -0.8789,-0.634762 0.537113,-0.903325 0.805663,-0.07325 1.074213,-0.463863 0.146487,-0.1709 0.07325,-0.292975 -0.26855,-0.488287 -0.6836,-0.366213 -1.025388,0.09763 -1.025388,0.3418 0,0.146487 -0.146487,0.43945 -0.24415,0.43945 -0.146475,0 -0.219725,-0.07325 -0.195312,-0.244138 0.07325,-0.6836 -0.3662,0.02437 -0.976563,-0.219725 0.3418,-0.878912 0.317388,-0.903325 0.5127,-1.220712 0.292975,-0.43945 0.805663,-1.9287004 -0.04888,-1.3427634 l -1.025387,0.8789004 c -0.09763,-0.122125 0.463862,-1.0986374 1.879875,-3.2470754 0.07325,0.292975 0.122125,0.5127 0.219725,0.634775 0.317387,0.317375 -0.07325,1.269525 -0.07325,1.269525 0,0.390625 0.488275,0.122125 0.488275,0.659188 0,0.3417874 -0.659175,-0.41505 -0.659175,0.219725 0,0.6103504 0.43945,0.9277254 0.43945,1.0253874 0,0.122125 0.219725,0.244138 0.219725,0.3418 0,0.122 0.07325,0.146475 0.146487,0.09763 0.317388,-0.26855 -0.3418,-0.366212 0.09763,-0.366212 0.415038,-0.04887 0.5371,-0.292963 0.5371,-0.683588 0,-0.8300754 -0.341787,-1.0742254 -0.708,-1.4892624 -0.04888,-2.124025 -0.195312,-1.635738 -0.195312,-2.050775 0,-0.3418 -0.292975,-1.049813 -0.659188,-1.049813 -0.219725,0 -0.292962,0.1709 -0.219725,0.5127 0.146488,0.463863 -0.07325,0.317388 -0.07325,0.634763 l -2.148437,3.6621124 c -0.244138,0.683588 -1.074225,0.95215 -0.878913,0.5127 0.927738,-2.0019624 1.29395,-2.3681754 0.927738,-2.4170004 -0.26855,-0.02438 -1.3916,2.5390634 -1.538088,2.2949254 -0.07325,-0.09762 0.415038,-0.756837 0,-0.756837 -0.292962,0 -0.341787,0.61035 -0.512687,0.61035 l -0.8545,-0.732425 c 0,-0.1708884 0.61035,-0.7324134 0.1709,-0.7812504 -0.366213,-0.02438 -0.683588,1.1230504 -0.903313,1.0009874 -0.146487,-0.122125 0.43945,-0.9277374 0.390625,-1.1474624 -0.04888,-0.146488 -0.292975,-0.1709 -0.488287,-0.02437 -0.26855,0.219725 -0.854488,1.5136624 -0.195313,1.5136624 1.0498,0 0.292975,1.7334 1.538088,0.903325 -0.146488,0.708013 -0.04888,0.708013 0.07325,0.708013 0.292975,0.04887 -0.317375,0.830075 0,0.830075 0.122125,0 0.585937,-0.317388 0.976562,-0.6836 0.561525,-0.5371 -0.219725,0.708012 -0.219725,0.805662 -0.07325,0 -0.95215,1.80665 -0.976562,1.80665 l -1.2207,-0.439462 1.074212,-2.392575 c -0.07325,0.02437 -0.683587,-0.07325 -0.78125,0 -0.488275,0.122125 -0.732412,0.61035 -0.390625,0.6836 0.317388,0 -0.146475,0.854487 -0.463862,1.513662 l -2.636713,-0.8789 c -0.24415,-0.07325 0.8789,-1.513675 0.8789,-1.977537 0,-0.195313 1.2207,-0.244138 0.854488,-0.634763 -0.195313,-0.1709 -2.294913,0.561513 -2.368163,0.561513 -0.09763,-1.269525 -0.43945,-0.390625 -0.78125,-0.09762 0,0.07325 -0.659175,0.805662 -0.976562,1.245112 -0.09763,0 -4.370113,-1.855462 -4.467775,-1.953125 -0.122125,-0.07325 -0.292963,-1.2451124 -0.146475,-1.2939374 1.586912,-0.5127 3.73535,-2.319338 4.370112,-2.319338 0.244138,0.3418 0.122125,0.683588 0,0.976563 0.659175,0.07325 0.561525,-1.416013 0.708013,-1.416013 0.5371,0.09763 0.756837,0.683588 0.805662,0.02437 0.683588,0.219725 1.83105,-0.02437 1.83105,-0.24415 l 0,-0.170887 c -1.269525,-0.07325 -1.416012,-0.390625 -1.2207,-0.488288 2.099613,-0.8789 1.342775,-0.683587 3.027338,-1.464837 0.927737,-0.439463 1.269537,-0.95215 1.269537,-0.3418 0,0.3418 -0.07325,0.463862 -0.292975,0.463862 -0.170887,0 -0.854487,0.268563 -0.292962,0.561525 0.78125,0.390625 0.244137,0.976563 0.659175,0.976563 0.02437,-0.43945 0.708012,0.02437 0.903325,-0.292963 0.09763,-0.146487 0,-0.195312 -0.537113,-0.78125 0.219725,-0.390625 0.268563,-0.41505 0.292975,-1.049812 0.02438,-0.756838 -0.09763,-0.708 1.367188,-1.440425 l 1.342775,1.464837 c -0.3418,0.805663 -0.95215,1.440438 -1.000988,2.34375 1.245125,-0.244137 2.124025,-0.78125 1.660163,-2.416987 -0.02437,-0.09762 0.927737,-0.927738 1.245112,-1.025388 0.732425,-0.24415 -0.122125,-1.171875 -0.122125,-1.171875 0,-0.195312 -0.219725,-0.317387 -0.439462,-0.317387 -0.219725,0 -0.219725,0 -0.317375,0.1709 -0.3418,0.830075 0.8789,0.903325 0.26855,1.147462 l -0.95215,0.585938 c -1.2207,-1.29395 -1.000975,-1.171875 -0.659175,-1.3916 0.09763,0 2.807612,-1.26953799 2.7832,-1.66016299 -0.07325,-0.585937 -2.148438,1.14746299 -2.661125,1.14746299 -0.04888,0 -0.439463,0.195312 -0.708013,0.366212 z m -0.659175,0.292963 -0.976563,0.5127 0.292963,-1.171875 0.6836,0.659175 z m 1.2207,3.515625 c 0,0 0.3418,-0.927725 0.512687,-0.708 0.292975,0.3418 -0.512687,1.000975 -0.512687,0.708 z m -18.188475,1.147462 c 0.146475,0 0.292962,0.292975 0.146475,0.439463 -0.561513,-0.04888 -0.756825,-0.146488 -0.146475,-0.439463 z m 3.588862,2.392588 c 0.5127,-0.439463 -0.195312,0.805662 -0.61035,0.78125 0,0 0,-0.3418 0.61035,-0.78125 z m -2.978512,0.561512 1.2207,0.6836004 c -0.219725,0 -1.416013,1.245113 -1.5625,0.02437 -0.09763,-1.0253874 0,-0.7080124 0.3418,-0.7080124 z m 3.125,0.9033254 c 0,0 -0.756838,-0.219725 -0.390625,-0.415037 0.26855,-0.1221254 0.390625,-0.5371134 0.488275,-0.02437 0.02438,0.292962 0,0.43945 -0.09762,0.43945 z m 16.06445,-0.09762 c 0,0.02437 -0.756838,1.611325 -0.8789,1.586913 -0.04888,-0.02437 -0.488288,-0.219725 -0.634775,-0.268563 0.317387,-0.659175 1.513675,-1.367187 1.513675,-1.31835 z M 7.915435,12.205895 c 0,0.146487 -1.80665,0.61035 -1.80665,0.219725 0,-0.07325 0.878913,-0.830075 1.245125,-1.098625 0.463863,-0.366213 0.561525,0.8789 0.561525,0.8789 z m 7.104488,0.146487 c 0,0 -0.26855,-0.61035 0.04888,-0.78125 0.07325,-0.04887 0.8545,-0.634762 0.903325,-0.659187 -0.268563,0.390625 -0.95215,1.342775 -0.95215,1.440437 z m 10.693362,-0.561525 c 1.245113,-0.537112 -0.3418,1.635738 -0.561525,1.464838 -0.07325,-0.04888 -0.488287,-0.122125 -1.196287,-0.43945 0.512687,-0.78125 0.732412,-1.245113 0.854487,-0.805663 0.122125,0.659175 0.78125,-0.195312 0.903325,-0.219725 z M 5.01016,12.205895 c 0.146475,0.366212 -0.02437,0.390625 -0.78125,0.244137 0.5371,-0.317375 0.659175,-0.561525 0.78125,-0.244137 z m 13.671875,1.367187 c 0.366213,0.366213 -0.3418,0.292975 -0.366212,0.122125 0,-0.219725 0.219725,-0.292975 0.366212,-0.122125 z m -4.24805,0.463863 c -0.146487,-0.219725 0.317388,-0.561513 0.244138,-0.07325 -0.04888,0.1709 -0.146488,0.195312 -0.244138,0.07325 z m -13.67187504,1.12305 c -0.146487,-0.122 -0.390625,-0.390625 -0.146487,-0.561525 0.1709,-0.195313 0.46387504,0.219725 0.146487,0.561525 z M 23.027735,15.062365 c -0.219725,0.09762 -0.43945,-0.24415 -0.26855,-0.5127 0.219725,-0.415038 0.43945,0.390625 0.26855,0.5127 z m -16.40625,2.709962 c 0.3418,0.292963 -1.342775,0.390625 -3.247075,0.415038 l 0,-0.390625 c 0.07325,-0.146488 3.173838,-0.07325 3.247075,-0.02437 z m 0,0" id="path637" style="fill:#000000;fill-opacity:1;fill-rule:nonzero;stroke:none"/>
</svg>