<?xml version="1.0" encoding="UTF-8" standalone="no"?>
<!-- Created with Inkscape (http://www.inkscape.org/) -->

<svg
   width="45.7897mm"
   height="19.497469mm"
   viewBox="0 0 45.7897 19.497469"
   version="1.1"
   id="svg1"
   xml:space="preserve"
   inkscape:version="1.3.1 (9b9bdc1480, 2023-11-25, custom)"
   sodipodi:docname="lapins.svg"
   xmlns:inkscape="http://www.inkscape.org/namespaces/inkscape"
   xmlns:sodipodi="http://sodipodi.sourceforge.net/DTD/sodipodi-0.dtd"
   xmlns="http://www.w3.org/2000/svg"
   xmlns:svg="http://www.w3.org/2000/svg"><sodipodi:namedview
     id="namedview1"
     pagecolor="#ffffff"
     bordercolor="#666666"
     borderopacity="1.0"
     inkscape:showpageshadow="2"
     inkscape:pageopacity="0.0"
     inkscape:pagecheckerboard="0"
     inkscape:deskcolor="#d1d1d1"
     inkscape:document-units="mm"
     inkscape:zoom="4.1121713"
     inkscape:cx="42.191822"
     inkscape:cy="47.177023"
     inkscape:window-width="1848"
     inkscape:window-height="1016"
     inkscape:window-x="72"
     inkscape:window-y="27"
     inkscape:window-maximized="1"
     inkscape:current-layer="g1" /><defs
     id="defs1" /><g
     inkscape:label="Layer 1"
     inkscape:groupmode="layer"
     id="layer1"
     transform="translate(-87.611086,-97.803085)"><g
       id="g1"><path
         style="fill:#000000"
         d="m 116.79636,103.33386 c 0.0257,-1.4542 0.16072,-2.75409 0.29997,-2.88865 0.13925,-0.13455 0.80149,-0.3249 1.47164,-0.423 1.11397,-0.163063 1.26712,-0.116483 1.78594,0.54308 0.37521,0.47701 0.56748,1.09712 0.56748,1.83026 0,1.43071 -0.80685,2.2594 -2.19987,2.2594 -0.86375,0 -0.97513,0.0755 -0.97513,0.66146 0,0.47146 -0.14316,0.66146 -0.49841,0.66146 -0.45803,0 -0.49462,-0.21422 -0.45162,-2.64401 z m 2.68566,-0.12116 c 0.59826,-0.91306 0.28209,-1.78889 -0.60718,-1.68199 -1.00509,0.12083 -1.32509,0.80034 -0.77341,1.64231 0.56101,0.85621 0.84032,0.86424 1.38059,0.0397 z m -20.859632,1.01555 c -0.95477,-0.50912 -0.65656,-0.99289 0.48054,-0.77957 1.231822,0.23109 1.426152,-0.30578 0.2835,-0.78321 -1.38468,-0.57856 -1.66871,-1.28923 -0.84461,-2.11333 0.79957,-0.799573 1.818392,-0.847953 2.545472,-0.12087 0.64982,0.64982 0.4289,1.14363 -0.43754,0.978 -0.834062,-0.15945 -0.815982,0.27861 0.0202,0.48847 0.87223,0.21892 1.28243,0.76243 1.07313,1.42188 -0.31741,1.00007 -2.019682,1.49572 -3.120652,0.90863 z m 8.200142,0.10375 c -0.41259,-0.30169 -0.46281,-0.71349 -0.39666,-3.25239 0.0444,-1.707906 0.0832,-2.6329 0.21079,-2.806701 0.0624,-0.08493 0.61055,-0.133003 0.6905,0.162791 0.0959,0.355053 0.0532,1.027217 0.11104,1.98967 0.0425,1.30211 -0.13694,2.6222 0.005,2.79327 0.14197,0.17106 0.85956,0.39081 1.59464,0.48832 1.78281,0.2365 1.5914,0.79059 -0.30852,0.89308 -0.87836,0.0474 -1.61765,-0.0565 -1.90691,-0.26804 z m 5.03688,-0.0454 c -0.25466,-0.19332 -0.46302,-0.67248 -0.46302,-1.0648 0,-0.59343 0.20482,-0.80391 1.21873,-1.25241 1.36685,-0.60463 1.28317,-1.21796 -0.0952,-0.69768 -0.46131,0.17412 -0.91247,0.24287 -1.00258,0.15276 -0.33935,-0.33935 0.42041,-1.20377 1.19401,-1.35849 1.23104,-0.246213 2.08302,0.27683 2.40625,1.47721 0.46562,1.72919 0.26205,2.32005 -0.94308,2.73731 -1.3084,0.45303 -1.72491,0.45412 -2.31511,0.006 z m 1.90964,-0.93855 c 0.19026,-0.35551 0.18956,-0.56567 -0.002,-0.68424 -0.39362,-0.24326 -1.04415,0.36895 -0.87114,0.81982 0.20147,0.525 0.54873,0.4711 0.87342,-0.13558 z m 8.52988,-0.72204 c 0.0611,-1.631 0.16216,-2.07214 0.47454,-2.07214 0.31744,0 0.39688,0.39647 0.39688,1.98075 0,1.69439 -0.0686,1.99396 -0.47454,2.07214 -0.42886,0.0826 -0.46706,-0.1081 -0.39688,-1.98075 z m 2.32663,0.0769 c 0,-2.28538 0.17819,-2.51838 1.97807,-2.58646 1.70315,-0.0644 2.03716,0.3986 1.93514,2.68255 -0.0593,1.32726 -0.17338,1.73653 -0.5015,1.79904 -0.33044,0.0629 -0.46105,-0.22566 -0.58828,-1.29992 -0.0899,-0.75946 -0.26585,-1.48315 -0.39091,-1.6082 -0.38575,-0.38575 -1.10961,0.0782 -1.10961,0.71125 0,1.35986 -0.32793,2.25372 -0.82682,2.25372 -0.44024,0 -0.49609,-0.21977 -0.49609,-1.95198 z m 5.54694,1.54389 c -0.45378,-0.54678 0.0951,-1.19943 0.59139,-0.70316 0.38264,0.38264 1.27,0.4221 1.27,0.0565 0,-0.14357 -0.40525,-0.43036 -0.90055,-0.63731 -1.09226,-0.45637 -1.41546,-1.27155 -0.8477,-2.13807 0.65332,-0.997093 2.53525,-0.962723 2.92518,0.0534 0.2408,0.6275 -0.0862,0.85958 -0.96375,0.68407 -0.53396,-0.1068 -0.76544,-0.0692 -0.6567,0.10678 0.0924,0.14944 0.52759,0.34364 0.96718,0.43156 0.59413,0.11883 0.8073,0.31433 0.8306,0.76178 0.0793,1.52288 -0.17982,1.78254 -1.78488,1.7885 -0.66549,0.002 -1.22439,-0.15536 -1.43077,-0.40404 z m -42.002014,-0.12658 c -0.585254,-0.24075 -0.601701,-0.34115 -0.529167,-3.23034 0.07192,-2.864723 0.09825,-2.985193 0.670174,-3.066413 0.574821,-0.0816 0.595312,-0.0117 0.595312,2.03329 0,2.950093 0.220178,3.423103 1.64108,3.525533 0.797886,0.0575 1.137045,0.20036 1.137045,0.47885 0,0.47392 -2.537446,0.66098 -3.514444,0.25908 z m 5.390239,-0.0767 c -0.292411,-0.21382 -0.528414,-0.82688 -0.615401,-1.59863 -0.119209,-1.05762 -0.04632,-1.3527 0.469854,-1.90214 0.855315,-0.910443 2.14952,-0.882803 2.89252,0.0618 0.30808,0.39165 0.52508,0.9572 0.48223,1.25677 -0.0643,0.4498 -0.29969,0.55884 -1.35116,0.62599 -1.032986,0.066 -1.255795,0.16583 -1.180736,0.52916 0.0731,0.35385 0.337076,0.43177 1.257596,0.37123 1.15733,-0.0761 1.16183,-0.073 0.6767,0.46302 -0.56156,0.62052 -1.911433,0.71943 -2.631603,0.19283 z m 1.792307,-2.88031 c -0.09289,-0.11202 -0.479874,-0.21246 -0.625394,-0.21246 -0.14552,0 -0.512786,0.13055 -0.570513,0.26413 -0.16752,0.38764 0.48345,0.54669 0.716559,0.45877 0.303669,-0.11453 0.805185,-0.11753 0.479348,-0.51044 z m 26.891278,-2.083943 c 0,-0.37864 0.14248,-0.52113 0.45998,-0.45998 0.6897,0.13282 0.76662,1.00855 0.0886,1.00855 -0.37864,0 -0.54856,-0.16992 -0.54856,-0.54857 z"
         id="path44065"
         sodipodi:nodetypes="cssssssscsssssssssssssssccsscssscccsssssscccssccssssssssccssssssssssscsscsssscssssssssccsscsssssssssssss" /><path
         d="m 106.8528,117.0553 c 0.67178,-0.2711 1.41738,-1.26262 1.41738,-1.88488 0,-0.87621 -0.73905,-0.70666 -1.84886,0.42415 -1.38732,1.41358 -1.18116,2.11151 0.43148,1.46073 z m -2.40706,-0.65166 c 0.35719,-0.35719 0.64944,-0.95023 0.64944,-1.31788 0,-0.83512 -0.0114,-0.8328 5.76603,-1.18005 2.51647,-0.15126 4.68936,-0.34544 4.82864,-0.43152 0.44109,-0.27261 0.27394,-0.85191 -0.28821,-0.99891 -0.2978,-0.0779 -1.75631,-0.0309 -3.24114,0.1043 -3.30344,0.30088 -3.41182,0.30854 -3.82746,0.27063 -0.18371,-0.0168 -0.75292,-0.68532 -1.26491,-1.48568 -0.51198,-0.80037 -1.10582,-1.45521 -1.31963,-1.45521 -0.2138,0 -0.38796,0.0893 -0.387,0.19844 0.002,0.27599 0.82713,1.47771 1.40433,2.04632 0.30794,0.30336 0.38863,0.56429 0.22507,0.72785 -0.41927,0.41928 -1.28805,-0.0277 -1.62228,-0.83456 -0.33315,-0.80428 -1.76804,-2.40263 -2.15692,-2.40263 -0.58038,0 -0.14319,1.20169 0.72724,1.99898 0.61825,0.56629 0.90401,1.02677 0.80206,1.29245 -0.27711,0.72213 -0.68507,0.453 -1.68045,-1.10862 -1.39149,-2.18303 -2.19871,-2.73834 -2.19871,-1.51253 0,0.41273 0.35437,1.02464 0.92227,1.59254 0.50725,0.50725 0.9964,1.21765 1.08702,1.57868 0.0906,0.36103 0.30067,0.65824 0.46679,0.66047 0.16613,0.002 0.47227,0.11177 0.68031,0.24343 0.31207,0.19748 0.25162,0.40542 -0.34538,1.18813 -1.07403,1.40813 -0.4627,2.06096 0.77289,0.82537 z m -2.81813,-0.11818 c 0.84278,-0.78728 1.0427,-1.44584 0.53429,-1.76006 -0.38121,-0.2356 -2.09381,1.4415 -2.09381,2.05041 0,0.69951 0.6243,0.58328 1.55952,-0.29035 z m 16.52435,-0.97128 c 0.61037,-0.7345 0.94033,-0.90694 1.73537,-0.90694 1.06362,0 2.05964,-0.54811 1.78971,-0.98486 -0.0922,-0.14926 -0.85096,-0.59488 -1.68602,-0.99027 -1.51626,-0.71791 -2.20052,-1.37773 -2.47203,-2.38373 -0.20546,-0.76127 -1.04673,-0.8683 -1.04673,-0.13316 0,0.70246 0.96405,2.11077 1.44492,2.11077 0.1928,0 0.42282,0.18833 0.51115,0.41851 0.33125,0.86323 0.14389,1.42862 -0.60109,1.81387 -0.75192,0.38883 -1.0904,0.89348 -1.0904,1.62572 0,0.6337 0.62363,0.38255 1.41512,-0.56991 z"
         style="fill:#000000"
         id="path1" /></g></g></svg>
